<svg width="48" height="48" viewBox="0 0 48 48" fill="none" xmlns="http://www.w3.org/2000/svg">
<path d="M24 33.1625L22.975 32.2375C21.2083 30.6209 19.75 29.225 18.6 28.05C17.45 26.875 16.5333 25.825 15.85 24.9C15.1667 23.975 14.6875 23.1375 14.4125 22.3875C14.1375 21.6375 14 20.8792 14 20.1125C14 18.6125 14.5042 17.3584 15.5125 16.35C16.5208 15.3417 17.7667 14.8375 19.25 14.8375C20.2 14.8375 21.0792 15.0625 21.8875 15.5125C22.6958 15.9625 23.4 16.6125 24 17.4625C24.7 16.5625 25.4417 15.9 26.225 15.475C27.0083 15.05 27.85 14.8375 28.75 14.8375C30.2333 14.8375 31.4792 15.3417 32.4875 16.35C33.4958 17.3584 34 18.6125 34 20.1125C34 20.8792 33.8625 21.6375 33.5875 22.3875C33.3125 23.1375 32.8333 23.975 32.15 24.9C31.4667 25.825 30.55 26.875 29.4 28.05C28.25 29.225 26.7917 30.6209 25.025 32.2375L24 33.1625ZM24 31.1875C25.6833 29.6375 27.0708 28.3084 28.1625 27.2C29.2542 26.0917 30.1208 25.1209 30.7625 24.2875C31.4042 23.4542 31.8542 22.7125 32.1125 22.0625C32.3708 21.4125 32.5 20.7625 32.5 20.1125C32.5 19.0125 32.15 18.1084 31.45 17.4C30.75 16.6917 29.85 16.3375 28.75 16.3375C27.9 16.3375 27.1083 16.6 26.375 17.125C25.6417 17.65 25.05 18.3875 24.6 19.3375H23.375C22.9417 18.4042 22.3583 17.6709 21.625 17.1375C20.8917 16.6042 20.1 16.3375 19.25 16.3375C18.15 16.3375 17.25 16.6917 16.55 17.4C15.85 18.1084 15.5 19.0125 15.5 20.1125C15.5 20.7625 15.6292 21.4167 15.8875 22.075C16.1458 22.7334 16.5958 23.4834 17.2375 24.325C17.8792 25.1667 18.75 26.1375 19.85 27.2375C20.95 28.3375 22.3333 29.6542 24 31.1875Z" fill="black"/>
</svg>
